<svg xmlns="http://www.w3.org/2000/svg" viewBox="0 0 24 24">
  <path fill="currentColor" d="M20.52 3.48A11.94 11.94 0 0012 1C6 1 1 6 1 12c0 2.1.55 4.05 1.6 5.78L1 23l5.39-1.46A11.94 11.94 0 0012 23c6 0 11-5 11-11 0-3.19-1.25-6.19-3.48-8.52zM12 21.5c-1.6 0-3.14-.4-4.5-1.14l-.32-.18-3.2.86.86-3.2-.18-.32A9.5 9.5 0 113 12 9.5 9.5 0 0112 21.5zM16.4 14.2c-.22-.11-1.3-.64-1.5-.71-.2-.08-.35-.12-.5.09-.15.21-.57.65-.7.78-.13.13-.26.15-.48.05-.22-.1-.84-.31-1.6-.95-.47-.42-.8-.86-.94-1.01-.14-.15-.02-.24.1-.39.12-.15.27-.35.4-.52.13-.16.17-.28.26-.45.09-.17.04-.31-.03-.43-.07-.13-.6-1.5-.8-2.05-.2-.55-.38-.48-.5-.49-.12-.01-.27-.01-.41-.01s-.38.06-.6.27c-.22.21-.85.72-.85 1.75 0 1.03.69 2.14.79 2.32.1.18 1.4 2.3 4 3.86 0 0 .8.4 1.5.55.7.15 1.1.1 1.5.05.43-.06 1.32-.5 1.5-1.02.18-.52.18-1.02.12-1.13-.06-.11-.22-.18-.45-.29z"/>
</svg>
